<?xml version="1.0" encoding="utf-8"?>
<!-- Generator: Adobe Illustrator 16.0.0, SVG Export Plug-In . SVG Version: 6.00 Build 0)  -->
<!DOCTYPE svg PUBLIC "-//W3C//DTD SVG 1.1//EN" "http://www.w3.org/Graphics/SVG/1.1/DTD/svg11.dtd">
<svg version="1.1" id="Слой_1" xmlns="http://www.w3.org/2000/svg" xmlns:xlink="http://www.w3.org/1999/xlink" x="0px" y="0px"
	 width="36px" height="36px" viewBox="0 0 36 36" enable-background="new 0 0 36 36" xml:space="preserve">
<path id="Shape" fill="#6B6B6B" d="M23.4,20.508v-4.37c0-0.283-0.229-0.514-0.513-0.514h-1.189v-4.118C21.698,8.471,19.231,6,16.2,6
	c-3.032,0-5.498,2.471-5.498,5.506v4.091h1.025v-4.091c0-2.469,2.007-4.479,4.473-4.479s4.472,2.009,4.472,4.479v4.118H9.513
	C9.229,15.624,9,15.854,9,16.138v8.456c0,1.004,0.812,1.816,1.81,1.816h6.302c0.26,2.773,2.596,4.951,5.432,4.951
	c2.822,0,5.157-2.119,5.431-4.93C27.991,26.255,28,26.075,28,25.896c0-1.34-0.489-2.628-1.377-3.629
	C25.78,21.317,24.637,20.705,23.4,20.508z M10.025,24.598v-3.224v-0.001v-4.722h12.35v3.789c-2.76,0.084-5.009,2.225-5.263,4.942
	H10.81C10.377,25.383,10.025,25.03,10.025,24.598L10.025,24.598z M26.953,26.333c-0.222,2.281-2.117,4.001-4.41,4.001
	c-2.443,0-4.432-1.99-4.432-4.438s1.988-4.438,4.432-4.438c1.265,0,2.473,0.543,3.313,1.491c0.721,0.813,1.118,1.858,1.118,2.946
	C26.975,26.042,26.968,26.188,26.953,26.333L26.953,26.333z"/>
<path id="Rectangle-163" fill="#7CB95E" d="M22.5,20.351L22.5,20.351c3.037,0,5.5,2.462,5.5,5.5l0,0c0,3.037-2.463,5.5-5.5,5.5l0,0
	c-3.038,0-5.5-2.463-5.5-5.5l0,0C17,22.813,19.462,20.351,22.5,20.351z"/>
<path id="Path" fill="#FFFFFF" d="M25.269,24.114c0.2,0.2,0.2,0.525,0,0.727l-3.32,3.324c-0.1,0.1-0.231,0.15-0.362,0.15
	s-0.262-0.051-0.362-0.15l-1.406-1.408c-0.2-0.2-0.2-0.525,0-0.727c0.2-0.2,0.525-0.2,0.726,0l1.043,1.045l2.957-2.961
	C24.743,23.913,25.068,23.913,25.269,24.114L25.269,24.114z"/>
</svg>
